<?xml version="1.0" standalone="no"?><!DOCTYPE svg PUBLIC "-//W3C//DTD SVG 1.1//EN" "http://www.w3.org/Graphics/SVG/1.1/DTD/svg11.dtd"><svg class="icon" width="200px" height="200.00px" viewBox="0 0 1024 1024" version="1.1" xmlns="http://www.w3.org/2000/svg"><path d="M85.333333 426.666667h85.333334v128H85.333333zM247.466667 0h128v384h-128zM571.733333 0h85.333334v384h-85.333334zM452.266667 0h42.666666v384h-42.666666zM733.866667 0h42.666666v384h-42.666666zM0 384h85.333333v42.666667H0zM853.333333 0h85.333334v384h-85.333334zM853.333333 426.666667h85.333334v128h-85.333334zM938.666667 384h85.333333v42.666667h-85.333333zM85.333333 0h85.333334v384H85.333333zM554.666667 597.333333h-85.333334a42.666667 42.666667 0 0 0 0 85.333334h85.333334a42.666667 42.666667 0 0 0 0-85.333334z"  /><path d="M700.16 426.666667H323.84A115.2 115.2 0 0 0 213.333333 545.706667v38.826666a282.453333 282.453333 0 0 0 71.68 158.72c9.813333 13.653333 18.773333 26.453333 26.453334 38.4a170.666667 170.666667 0 0 1 24.32 94.72V981.333333a42.666667 42.666667 0 0 0 42.666666 42.666667h267.093334a42.666667 42.666667 0 0 0 42.666666-42.666667v-105.813333a167.68 167.68 0 0 1 24.32-93.866667c7.68-11.946667 16.64-24.746667 26.453334-38.4A282.453333 282.453333 0 0 0 810.666667 584.533333v-38.826666A115.2 115.2 0 0 0 700.16 426.666667z m25.173333 157.866666a229.973333 229.973333 0 0 1-55.466666 108.8c-10.666667 14.933333-21.333333 29.44-29.866667 42.666667a256 256 0 0 0-37.12 139.946667V938.666667H421.12v-61.44a256 256 0 0 0-37.12-140.8c-8.533333-13.653333-19.2-28.16-29.866667-42.666667A229.973333 229.973333 0 0 1 298.666667 584.533333v-38.826666c0-18.346667 11.52-33.706667 25.173333-33.706667h376.32c13.653333 0 25.173333 15.36 25.173333 33.706667z"  /></svg>